<svg width="71" height="23" viewBox="0 0 71 23" fill="none" xmlns="http://www.w3.org/2000/svg">
<path d="M55.4422 4.8228C55.7352 4.58843 55.8816 4.47124 56.0281 4.35405C58.0643 2.62554 60.6717 2.81597 62.4148 4.86675C62.5906 5.07183 62.6785 5.08648 62.8543 4.9107C62.9715 4.77886 63.1033 4.67632 63.2205 4.54448C64.5828 3.21148 66.3846 2.81597 68.0691 3.56304C69.8416 4.35406 70.7937 5.74565 70.8084 7.6939C70.8377 11.898 70.823 16.0875 70.823 20.2916C70.823 21.7857 69.9002 22.7232 68.4207 22.7232C67.8348 22.7232 67.2488 22.6792 66.6629 22.7378C66.0623 22.7964 65.8865 22.606 65.8865 21.9761C65.9158 17.8746 65.9012 13.773 65.9012 9.67144C65.9012 9.49565 65.9012 9.33452 65.9012 9.15874C65.8865 8.20659 65.5057 7.81108 64.5975 7.76714C63.7771 7.72319 63.2059 8.22124 63.118 9.0562C63.1033 9.24663 63.118 9.45171 63.118 9.64214C63.118 13.1871 63.118 16.7173 63.118 20.2623C63.118 21.815 62.2244 22.7232 60.6717 22.7085C59.8807 22.6939 58.8113 23.0601 58.3572 22.5474C57.9617 22.108 58.2254 21.0679 58.2254 20.2916C58.2254 16.6587 58.2254 13.0113 58.2254 9.37847C58.2254 8.0894 57.3904 7.43023 56.3064 7.86968C55.6326 8.148 55.4129 8.68999 55.4129 9.39312C55.4275 12.7916 55.4129 16.1753 55.4129 19.5738C55.4129 19.8375 55.4129 20.1158 55.4129 20.3794C55.3689 21.8003 54.4607 22.6939 53.0545 22.7085C52.4685 22.7232 51.8826 22.6646 51.2967 22.7232C50.6668 22.7818 50.4764 22.606 50.491 21.9322C50.5203 16.1753 50.5057 10.4185 50.5057 4.64702C50.5057 4.398 50.5203 4.16363 50.5057 3.9146C50.4764 3.59234 50.6082 3.4898 50.9305 3.4898C52.2781 3.50445 53.6111 3.50445 54.9588 3.4898C55.2957 3.4898 55.4568 3.57769 55.4275 3.9439C55.3982 4.20757 55.4275 4.44194 55.4422 4.8228Z" fill="#02B9EF" fill-opacity="0.5"/>
<path d="M24.3872 12.7623C24.3872 14.7691 24.3872 16.7613 24.3872 18.7682C24.3725 21.3756 23.0102 22.7232 20.4028 22.7379C19.2602 22.7379 18.103 22.7525 16.9604 22.7379C14.646 22.7086 12.9467 21.1705 12.8296 18.8561C12.7417 17.2008 12.727 15.5309 12.8149 13.8756C12.9321 11.5025 14.7485 9.83263 17.1508 9.80333C17.7807 9.78868 18.4253 9.80333 19.0551 9.80333C19.6704 9.78868 19.9048 9.43712 19.8901 8.85118C19.8901 8.26524 19.6264 8.00157 19.0405 8.03087C18.3813 8.04552 17.7221 8.04552 17.063 8.03087C15.4516 8.00157 14.5581 7.12266 14.5727 5.54063C14.5727 4.8961 14.2798 4.03184 14.7046 3.65098C15.0708 3.32872 15.9057 3.53379 16.5356 3.53379C18.1762 3.51915 19.8022 3.53379 21.4428 3.53379C23.186 3.53379 24.3725 4.72032 24.3872 6.47813C24.4018 8.55821 24.3872 10.6676 24.3872 12.7623ZM19.9048 16.0875C19.9048 15.8385 19.9048 15.6041 19.9048 15.3551C19.9048 13.8609 19.9048 13.8609 18.4106 13.9195C17.6635 13.9488 17.2534 14.3297 17.2387 15.1061C17.2241 15.7213 17.2241 16.3219 17.2387 16.9371C17.2534 17.9918 17.7221 18.2701 19.2456 18.3141C20.3735 18.3434 19.8022 17.5524 19.9048 17.1129C19.9633 16.7906 19.8901 16.4244 19.9048 16.0875Z" fill="#06306F" fill-opacity="0.5"/>
<path d="M37.4245 11.1657C37.4245 13.4069 37.4538 15.6627 37.4098 17.9039C37.3805 19.6325 36.9704 21.1998 35.3004 22.1227C34.6266 22.4889 33.8942 22.694 33.1325 22.7086C31.4479 22.7379 29.7633 22.7086 28.0787 22.7379C27.6686 22.7379 27.5807 22.5914 27.5953 22.2252C27.6246 21.61 27.5807 21.0094 27.61 20.3942C27.6393 19.2223 28.5328 18.3287 29.7047 18.2848C30.4664 18.2555 31.2135 18.2702 31.9752 18.2848C32.5905 18.2848 32.9274 18.0358 32.9274 17.3766C32.9274 16.7028 32.6051 16.4684 31.9899 16.4537C30.9645 16.4245 29.9391 16.5709 28.9284 16.278C27.1852 15.7653 25.9108 14.3151 25.8668 12.5133C25.7789 9.65688 25.8375 6.80043 25.8229 3.94398C25.8229 3.62172 25.9254 3.51918 26.2477 3.53383C27.4489 3.54847 28.6354 3.56312 29.8366 3.53383C30.3639 3.51918 30.2907 3.81215 30.2907 4.13441C30.2907 6.28773 30.2907 8.4264 30.2907 10.5797C30.2907 11.5172 30.7301 12.0153 31.5504 12.0446C32.5172 12.0739 32.942 11.6784 32.942 10.6969C32.942 8.52894 32.9567 6.34633 32.9274 4.17836C32.9274 3.66566 33.0592 3.51918 33.5719 3.53383C34.6413 3.57777 35.7252 3.59242 36.7946 3.53383C37.3805 3.50453 37.4684 3.72426 37.4538 4.23695C37.4098 6.53676 37.4245 8.85121 37.4245 11.1657Z" fill="#06306F" fill-opacity="0.5"/>
<path d="M0.100277 14.4908C0.100277 12.1031 0.100277 9.70075 0.100277 7.31305C0.100277 4.9693 1.53582 3.50445 3.89422 3.53375C5.43231 3.5484 6.97039 3.35797 8.49383 3.65094C10.4421 4.0318 11.6725 5.54059 11.6872 7.54742C11.7018 9.67145 11.6872 11.7955 11.6872 13.9195C11.6872 16.5855 10.1198 18.2115 7.45379 18.2847C6.64813 18.314 5.84246 18.2994 5.0368 18.2847C4.67059 18.2701 4.50946 18.3873 4.5241 18.7828C4.5534 19.3687 4.53875 19.9546 4.5241 20.5406C4.49481 21.8004 3.60125 22.7086 2.35614 22.7232C1.62371 22.7379 0.700862 23.0308 0.232112 22.606C-0.207341 22.2105 0.114925 21.273 0.100277 20.5699C0.0856282 18.5484 0.100277 16.5123 0.100277 14.4908ZM4.5241 10.9019C4.5241 11.3707 4.5241 11.8248 4.5241 12.2935C4.5241 13.9488 4.5241 13.9488 6.17938 13.8023C6.89715 13.7437 7.23407 13.3921 7.24871 12.6744C7.26336 11.8541 7.21942 11.0191 7.26336 10.1988C7.35125 7.82574 6.9118 8.06012 4.97821 8.04547C4.62664 8.04547 4.50946 8.14801 4.50946 8.49957C4.53875 9.29059 4.5241 10.0963 4.5241 10.9019Z" fill="#06306F" fill-opacity="0.5"/>
<path d="M41.5701 14.5201C41.5701 12.5718 41.5554 10.6089 41.5847 8.66069C41.5847 8.20659 41.4822 8.01616 40.9841 8.03081C40.325 8.06011 39.446 8.25054 39.0798 7.92827C38.6257 7.50347 38.9773 6.59526 38.9187 5.89214C38.9187 5.84819 38.9187 5.7896 38.9187 5.74566C38.9187 5.05718 38.699 4.25151 38.9919 3.73882C39.2849 3.22612 40.1785 3.54839 40.8083 3.38726C42.0535 3.06499 42.991 2.34722 43.7527 1.35112C44.28 0.677295 44.9392 0.193897 45.7888 0.0327639C46.2429 -0.0551267 46.5212 0.00346745 46.4919 0.589405C46.448 1.40972 46.4919 2.24468 46.4773 3.07964C46.4626 3.4312 46.5945 3.54839 46.946 3.53374C47.532 3.51909 48.1179 3.54839 48.7039 3.51909C49.0554 3.50444 49.1726 3.63628 49.158 3.98784C49.1433 5.18901 49.1433 6.37554 49.158 7.57671C49.158 7.91362 49.0701 8.08941 48.7039 8.04546C48.6306 8.03081 48.5574 8.04546 48.4841 8.04546C47.8396 8.10406 46.946 7.75249 46.6091 8.19195C46.2869 8.6021 46.4919 9.45171 46.4919 10.1109C46.4919 14.0953 46.4773 18.065 46.5066 22.0494C46.5066 22.606 46.3601 22.7818 45.8035 22.7378C45.2761 22.6939 44.7341 22.7378 44.1921 22.7232C42.6101 22.6646 41.5701 21.5953 41.5701 20.0132C41.5701 18.1822 41.5701 16.3511 41.5701 14.5201Z" fill="#02B9EF" fill-opacity="0.5"/>
</svg>
