<svg width="75" height="30" viewBox="0 0 75 30" fill="none" xmlns="http://www.w3.org/2000/svg">
<path fill-rule="evenodd" clip-rule="evenodd" d="M0.596489 24.9449H1.15329L0.631889 27.3378C0.552389 27.6896 0.570089 27.9629 0.675988 28.1387C0.782188 28.3145 0.976288 28.4023 1.26789 28.4023C1.55049 28.4023 1.78899 28.3145 1.97469 28.1387C2.16009 27.9626 2.28399 27.6893 2.36349 27.3378L2.88458 24.9449H3.45008L2.91998 27.3965C2.80508 27.9238 2.60198 28.3244 2.30169 28.5881C2.01009 28.8517 1.62129 28.9887 1.14429 28.9887C0.667288 28.9887 0.340289 28.8617 0.163589 28.5977C-0.0131102 28.334 -0.0485102 27.9337 0.0663896 27.4064L0.596489 24.9453V24.9449ZM67.6485 28.8809L68.4963 24.9449H70.431L70.3161 25.4918H68.9469L68.7351 26.4781H70.1043L69.9804 27.035H68.6112L68.3373 28.3042H69.7068L69.5832 28.8806H67.6485V28.8809ZM67.5954 25.9021C67.4715 25.7462 67.3215 25.6288 67.1625 25.5601C67.0032 25.4822 66.8268 25.4431 66.6234 25.4431C66.2436 25.4431 65.9079 25.5797 65.6076 25.8533C65.3073 26.1269 65.1129 26.4884 65.0157 26.9275C64.9272 27.3477 64.9626 27.6993 65.1396 27.9825C65.3073 28.2558 65.5722 28.3927 65.9256 28.3927C66.1287 28.3927 66.3321 28.3536 66.5349 28.2657C66.7383 28.1878 66.9417 28.0604 67.1535 27.8946L66.9945 28.6173C66.8178 28.7439 66.6324 28.8322 66.4377 28.8909C66.2433 28.9492 66.0489 28.9787 65.8371 28.9787C65.5722 28.9787 65.3334 28.9297 65.1303 28.8318C64.9269 28.7343 64.7595 28.5877 64.6266 28.3927C64.4943 28.207 64.4148 27.9825 64.3794 27.7288C64.3443 27.4747 64.353 27.2015 64.4238 26.9083C64.4856 26.6154 64.5915 26.3511 64.7331 26.0974C64.8744 25.8434 65.0598 25.6188 65.2719 25.4335C65.4837 25.2381 65.7135 25.0919 65.961 24.994C66.2082 24.8965 66.4554 24.8478 66.7119 24.8478C66.915 24.8478 67.1004 24.8769 67.2774 24.9453C67.4451 25.0139 67.6041 25.1111 67.7454 25.2481L67.5954 25.9021ZM62.1003 27.3281H63.063L62.904 26.4294C62.8953 26.371 62.8863 26.3024 62.8863 26.234C62.8773 26.1561 62.8773 26.0778 62.8773 25.99C62.8419 26.0778 62.8068 26.1558 62.7624 26.234C62.727 26.312 62.6919 26.3806 62.6565 26.4393L62.1 27.3281H62.1003ZM63.3282 28.8809L63.1515 27.8654H61.7733L61.1547 28.8809H60.5631L63.1248 24.7891L63.9198 28.8809H63.3282ZM58.6638 28.8809L59.5119 24.9449H61.4466L61.3317 25.4918H59.9622L59.7504 26.4685H61.1193L60.9957 27.0254H59.6265L59.229 28.871H58.6635V28.8809H58.6638ZM56.994 26.6151H57.0999C57.4002 26.6151 57.6036 26.576 57.7185 26.4977C57.8331 26.4194 57.9129 26.2828 57.957 26.0775C58.0008 25.8626 57.9834 25.7064 57.8949 25.6185C57.807 25.5306 57.621 25.4815 57.3384 25.4815H57.2322L56.9937 26.6148L56.994 26.6151ZM56.8527 27.1132L56.4726 28.871H55.9425L56.7909 24.9353H57.5772C57.807 24.9353 57.9834 24.9549 58.0983 24.9844C58.2216 25.0139 58.3191 25.0723 58.3896 25.1502C58.4781 25.2481 58.5309 25.3651 58.5573 25.5213C58.584 25.6683 58.575 25.8341 58.5396 26.0195C58.4691 26.3322 58.3539 26.5863 58.1775 26.7617C58.0008 26.9375 57.7797 27.0449 57.5148 27.0841L58.3188 28.8706H57.6825L56.9139 27.1129H56.8521L56.8527 27.1132ZM53.3631 28.8809L54.2115 24.9449H56.1549L56.0403 25.4918H54.6708L54.459 26.4781H55.8282L55.7049 27.035H54.3354L54.0618 28.3042H55.431L55.3071 28.8806H53.3634L53.3631 28.8809ZM52.7538 25.4822L52.0206 28.871H51.4554L52.1886 25.4822H51.2697L51.3846 24.9353H53.7876L53.673 25.4822H52.7541H52.7538ZM47.0028 28.8809L47.8863 24.7891L49.5648 27.1915C49.6092 27.2598 49.653 27.3285 49.6971 27.4064C49.7412 27.4843 49.7856 27.5726 49.8384 27.6697L50.4306 24.9449H50.9517L50.0682 29.0275L48.3543 26.576C48.3102 26.5077 48.2658 26.4393 48.222 26.3707C48.1779 26.2927 48.1425 26.2241 48.1158 26.1362L47.5242 28.8706H47.0031V28.8806L47.0028 28.8809ZM45.6246 28.8809L46.4727 24.9449H47.0379L46.1898 28.8809H45.6246ZM41.4636 28.0899L41.967 27.8555C41.9757 28.0312 42.0198 28.1679 42.1173 28.2558C42.2145 28.3436 42.3468 28.3927 42.5235 28.3927C42.6912 28.3927 42.8328 28.3436 42.9564 28.2365C43.08 28.1291 43.1598 27.9924 43.1949 27.8167C43.248 27.5822 43.1244 27.3769 42.8241 27.2015C42.78 27.1719 42.7536 27.1524 42.7266 27.1428C42.3909 26.9278 42.1791 26.7425 42.0906 26.5667C42.0024 26.3909 41.9844 26.1856 42.0378 25.9419C42.1083 25.6195 42.2586 25.3655 42.4968 25.1605C42.7356 24.9652 43.0005 24.8577 43.3188 24.8577C43.575 24.8577 43.7778 24.9164 43.9281 25.0235C44.0784 25.1313 44.1579 25.2971 44.1843 25.5024L43.6899 25.7565C43.6455 25.6295 43.5924 25.5416 43.5219 25.4829C43.4514 25.4245 43.3629 25.395 43.2567 25.395C43.1064 25.395 42.9741 25.4437 42.8682 25.5316C42.762 25.6195 42.6915 25.7369 42.6561 25.8931C42.6033 26.1276 42.7536 26.3518 43.0977 26.5571C43.1244 26.5766 43.1418 26.5866 43.1598 26.5959C43.4601 26.7716 43.6632 26.9477 43.7514 27.1235C43.8399 27.299 43.8576 27.5042 43.8048 27.7679C43.725 28.139 43.5573 28.4319 43.3008 28.6567C43.0449 28.8713 42.7443 28.989 42.3909 28.989C42.0996 28.989 41.8698 28.9104 41.7108 28.7542C41.5341 28.598 41.4546 28.3732 41.4636 28.0903V28.0899ZM40.8717 25.4822L40.1385 28.871H39.5733L40.3065 25.4822H39.3879L39.5022 24.9353H41.9052L41.7903 25.4822H40.8717ZM35.1207 28.8809L36.0039 24.7891L37.6827 27.1915C37.7268 27.2598 37.7712 27.3285 37.8153 27.4064C37.8591 27.4843 37.9035 27.5726 37.9566 27.6697L38.5485 24.9449H39.0696L38.1864 29.0275L36.4725 26.576C36.4281 26.5077 36.3843 26.4393 36.3399 26.3707C36.2958 26.2927 36.2604 26.2241 36.234 26.1362L35.6421 28.8706H35.121V28.8806L35.1207 28.8809ZM32.541 28.8809L33.3891 24.9449H35.3238L35.2089 25.4918H33.8397L33.6276 26.4781H34.9968L34.8732 27.035H33.504L33.2301 28.3042H34.5996L34.4757 28.8806H32.541V28.8809ZM31.6047 26.9375C31.6047 26.9083 31.6134 26.8201 31.6311 26.6834C31.6401 26.5664 31.6488 26.4785 31.6578 26.4002C31.6224 26.4884 31.587 26.576 31.5429 26.6735C31.4988 26.7617 31.4457 26.8592 31.3839 26.9471L30.0234 29.0467L29.5818 26.9083C29.5641 26.8204 29.5464 26.7325 29.5374 26.6542C29.5287 26.5763 29.5197 26.4884 29.5197 26.4101C29.502 26.4884 29.4756 26.576 29.4492 26.6735C29.4225 26.7617 29.3874 26.8592 29.343 26.957L28.548 28.8909H28.0269L29.7318 24.7891L30.2178 27.2694C30.2265 27.3086 30.2355 27.3769 30.2445 27.4648C30.2532 27.553 30.2709 27.6701 30.2886 27.8067C30.3504 27.6896 30.4299 27.553 30.5361 27.3769C30.5625 27.3285 30.5889 27.299 30.5979 27.2694L32.1351 24.7891L32.082 28.8909H31.5609L31.6053 26.9375H31.6047ZM26.2248 28.8809L26.6136 27.0841L25.9068 24.9549H26.4984L26.94 26.2931C26.949 26.3319 26.9577 26.371 26.9754 26.4294C26.9931 26.4884 27.0021 26.5468 27.0195 26.6052C27.0549 26.5468 27.0903 26.4881 27.1257 26.4294C27.1611 26.371 27.1965 26.3219 27.2316 26.2732L28.2654 24.9549H28.8306L27.1788 27.0741L26.79 28.8706H26.2245V28.8806L26.2248 28.8809ZM23.601 27.3281H24.5637L24.4047 26.4294C24.3957 26.371 24.387 26.3024 24.387 26.234C24.378 26.1561 24.378 26.0778 24.378 25.99C24.3426 26.0778 24.3072 26.1558 24.2631 26.234C24.2277 26.312 24.1926 26.3806 24.1569 26.4393L23.6004 27.3281H23.601ZM24.8199 28.8809L24.6432 27.8654H23.265L22.6467 28.8809H22.0548L24.6168 24.7891L25.4118 28.8809H24.8199ZM21.2775 26.5859H21.4188C21.7281 26.5859 21.9489 26.5468 22.0725 26.4685C22.1961 26.3906 22.2756 26.2539 22.32 26.0583C22.3638 25.8533 22.3374 25.6971 22.2492 25.6192C22.152 25.5313 21.9576 25.4922 21.6663 25.4922H21.525L21.2775 26.5863V26.5859ZM21.1272 27.1132L20.7474 28.8809H20.2174L21.0654 24.9449H21.9222C22.1784 24.9449 22.3551 24.9645 22.47 24.9937C22.5849 25.0229 22.6734 25.072 22.7439 25.1499C22.8321 25.2378 22.8939 25.3648 22.9206 25.521C22.947 25.6775 22.9383 25.8434 22.9029 26.0288C22.8588 26.2145 22.797 26.3902 22.6998 26.5465C22.6026 26.7027 22.4877 26.8297 22.3641 26.9176C22.2582 26.9859 22.1433 27.0443 22.0197 27.0738C21.8961 27.103 21.7017 27.1229 21.4542 27.1229H21.1275V27.1129L21.1272 27.1132ZM15.8533 28.2949H16.3303C16.5865 28.2949 16.7896 28.2753 16.9312 28.2365C17.0725 28.1977 17.1961 28.1291 17.311 28.0412C17.47 27.9142 17.6026 27.758 17.7085 27.5626C17.8147 27.3769 17.8942 27.1524 17.947 26.8987C17.9998 26.6446 18.0175 26.4297 17.9911 26.2447C17.9647 26.0586 17.9029 25.8928 17.7967 25.7658C17.7172 25.6683 17.62 25.6096 17.4877 25.5704C17.3551 25.5313 17.152 25.5121 16.8604 25.5121H16.4542L15.8533 28.2952V28.2949ZM15.1642 28.8809L16.0126 24.9449H16.7722C17.2669 24.9449 17.6116 24.9741 17.7967 25.0328C17.9824 25.0915 18.1411 25.1794 18.265 25.316C18.424 25.4918 18.5302 25.7167 18.5743 25.98C18.6184 26.2536 18.6007 26.566 18.5302 26.9079C18.4504 27.2595 18.3358 27.562 18.1768 27.8352C18.0178 28.1088 17.8147 28.3237 17.5762 28.4995C17.3995 28.6365 17.2051 28.7244 16.993 28.7827C16.7899 28.8414 16.4806 28.8706 16.0741 28.8706H15.1642V28.8806V28.8809ZM12.5758 28.8809L13.4239 24.9449H15.3586L15.2437 25.4918H13.8742L13.6621 26.4781H15.0316L14.908 27.035H13.5385L13.2646 28.3042H14.6341L14.5105 28.8806H12.5758V28.8809ZM11.2063 28.8809L12.0544 24.9449H12.6196L11.7715 28.8809H11.206H11.2063ZM8.64427 28.8809L9.49237 24.9449H11.4271L11.3122 25.4918H9.94297L9.73087 26.4685H11.1001L10.9765 27.0254H9.60697L9.20947 28.871H8.64397V28.8809H8.64427ZM7.27478 28.8809L8.12287 24.9449H8.68807L7.83997 28.8809H7.27448H7.27478ZM3.37028 28.8809L4.25348 24.7891L5.93198 27.1915C5.97608 27.2598 6.02018 27.3285 6.06458 27.4064C6.10868 27.4843 6.15278 27.5726 6.20588 27.6697L6.79778 24.9449H7.31888L6.43568 29.0275L4.72178 26.576C4.67768 26.5077 4.63358 26.4393 4.58918 26.3707C4.54508 26.2927 4.50968 26.2241 4.48328 26.1362L3.89138 28.8706H3.37028V28.8806V28.8809Z" fill="#3A3734"/>
<path fill-rule="evenodd" clip-rule="evenodd" d="M57.3594 21.5149H53.4813L58.8702 0H62.7483L57.3594 21.5149ZM25.1323 20.1671C24.9202 21.0168 24.2134 21.6124 23.4184 21.6124H3.42674C2.87894 21.6124 2.47274 21.4071 2.20754 20.9972C1.94264 20.5866 1.88084 20.0789 2.03984 19.4736L6.91633 0.0587015H10.7947L6.43933 17.4032H21.9523L26.3074 0.0587015H30.1858L25.1326 20.1671H25.1323ZM55.3452 0.673906C55.0803 0.263659 54.6648 0.0587015 54.0996 0.0587015H32.7916L31.7404 4.27758H51.1227L49.992 8.78001H34.4881V8.77006H30.61L27.3943 21.6128H31.2724L33.4279 12.9989H50.8578C51.4056 12.9989 51.918 12.7936 52.395 12.3837C52.872 11.9734 53.1903 11.4657 53.3403 10.8601L55.4958 2.24657C55.6635 1.60219 55.6107 1.08448 55.3455 0.674238L55.3452 0.673906Z" fill="#716D6A"/>
<path fill-rule="evenodd" clip-rule="evenodd" d="M69.4532 0.0390625L74.3563 10.8209L64.0469 21.6027L65.273 16.7119L70.9112 10.8209L68.2289 4.92256L69.4532 0.0390625Z" fill="#0E8635"/>
<path fill-rule="evenodd" clip-rule="evenodd" d="M66.0093 0.0390625L70.9122 10.8209L60.5938 21.6027L66.0093 0.0390625Z" fill="#E97208"/>
</svg>
