<svg width="35" height="35" viewBox="0 0 35 35" fill="none" xmlns="http://www.w3.org/2000/svg">
<g clip-path="url(#clip0)">
<path d="M17.5 35C27.165 35 35 27.165 35 17.5C35 7.83502 27.165 0 17.5 0C7.83502 0 0 7.83502 0 17.5C0 27.165 7.83502 35 17.5 35Z" fill="#F0F0F0"/>
<path d="M17.4999 0C10.5618 0 4.56695 4.03765 1.73633 9.89133H33.2633C30.4328 4.03765 24.4379 0 17.4999 0Z" fill="#FF9811"/>
<path d="M17.4999 35C24.4379 35 30.4328 30.9623 33.2634 25.1086H1.73633C4.56695 30.9623 10.5618 35 17.4999 35Z" fill="#6DA544"/>
<path d="M17.5 23.5869C20.8617 23.5869 23.5869 20.8617 23.5869 17.5C23.5869 14.1383 20.8617 11.4131 17.5 11.4131C14.1383 11.4131 11.4131 14.1383 11.4131 17.5C11.4131 20.8617 14.1383 23.5869 17.5 23.5869Z" fill="#0052B4"/>
<path d="M17.5001 21.3043C19.6012 21.3043 21.3045 19.6011 21.3045 17.5C21.3045 15.3989 19.6012 13.6957 17.5001 13.6957C15.3991 13.6957 13.6958 15.3989 13.6958 17.5C13.6958 19.6011 15.3991 21.3043 17.5001 21.3043Z" fill="#F0F0F0"/>
<path d="M17.4999 12.8054L18.6735 15.4672L21.5654 15.1527L19.8471 17.4999L21.5654 19.8472L18.6735 19.5327L17.4999 22.1944L16.3262 19.5327L13.4343 19.8471L15.1526 17.4999L13.4343 15.1527L16.3262 15.4672L17.4999 12.8054Z" fill="#0052B4"/>
</g>
<defs>
<clipPath id="clip0">
<rect width="35" height="35" fill="white"/>
</clipPath>
</defs>
</svg>
